# AST/ASF file generated using VICON BodyLanguage
# -----------------------------------------------
:version 1.10
:name VICON
:units
  mass 1.0
  length 0.45
  angle deg
:documentation
   .ast/.asf automatically generated from VICON data using
   VICON BodyBuilder and BodyLanguage model FoxedUp or BRILLIANT.MOD
:root
   order TX TY TZ RX RY RZ
   axis XYZ
   position 0 0 0  
   orientation 0 0 0 
:bonedata
  begin
     id 1 
     name lhipjoint
     direction 0.643824 -0.71708 0.266994 
     length 2.52133 
     axis 0 0 0  XYZ
  end
  begin
     id 2 
     name lfemur
     direction 0.34202 -0.939693 0  
     length 7.51824  
     axis 0 0 20  XYZ
    dof rx ry rz
    limits (-160.0 20.0)
           (-70.0 70.0)
           (-60.0 70.0)
  end
  begin
     id 3 
     name ltibia
     direction 0.34202 -0.939693 0   
     length 7.3685   
     axis 0 0 20   XYZ
    dof rx
    limits (-10.0 170.0)
  end
  begin
     id 4 
     name lfoot
     direction 0.105419 -0.289636 0.951314   
     length 2.20972   
     axis -90 7.62852e-016 20   XYZ
    dof rx rz
    limits (-45.0 90.0)
           (-70.0 20.0)
  end
  begin
     id 5 
     name ltoes
     direction 1.53549e-011 -4.21833e-011 1   
     length 1.10139   
     axis -90 7.62852e-016 20   XYZ
    dof rx
    limits (-90.0 20.0)
  end
  begin
     id 6 
     name rhipjoint
     direction -0.608823 -0.743445 0.276811   
     length 2.43192  
     axis 0 0 0  XYZ 
  end
  begin
     id 7 
     name rfemur
     direction -0.34202 -0.939693 0   
     length 7.69715   
     axis 0 0 -20   XYZ
    dof rx ry rz
    limits (-160.0 20.0)
           (-70.0 70.0)
           (-70.0 60.0)
  end
  begin
     id 8 
     name rtibia
     direction -0.34202 -0.939693 0   
     length 7.44924   
     axis 0 0 -20   XYZ
    dof rx
    limits (-10.0 170.0)
 end
 begin
     id 9 
     name rfoot
     direction -0.103614 -0.284677 0.953007   
     length 2.22623  
     axis -90 -7.62852e-016 -20   XYZ
    dof rx rz
    limits (-45.0 90.0)
           (-20.0 70.0)
  end
  begin
     id 10 
     name rtoes
     direction -1.53537e-011 -4.22026e-011 1   
     length 1.11   
     axis -90 -7.62852e-016 -20   XYZ
    dof rx
    limits (-90.0 20.0)
  end
  begin
     id 11 
     name lowerback
     direction -0.0101212 0.99662 -0.0815298   
     length 2.08277   
     axis 0 0 0   XYZ
    dof rx ry rz
    limits (-20.0 45.0)
           (-30.0 30.0)
           (-30.0 30.0)
  end
  begin
     id 12 
     name upperback
     direction 0.024314 0.999591 -0.0150645   
     length 2.08524   
     axis 0 0 0   XYZ
    dof rx ry rz
    limits (-20.0 45.0)
           (-30.0 30.0)
           (-30.0 30.0)
  end
  begin
     id 13 
     name thorax
     direction 0.0285959 0.999323 0.0231357   
     length 2.09645   
     axis 0 0 0   XYZ
    dof rx ry rz
    limits (-20.0 45.0)
           (-30.0 30.0)
           (-30.0 30.0)
  end
  begin
     id 14 
     name lowerneck
     direction -0.065512 0.979301 0.191515   
     length 1.63798   
     axis 0 0 0   XYZ
    dof rx ry rz
    limits (-20.0 45.0)
           (-30.0 30.0)
           (-30.0 30.0)
  end
  begin
     id 15 
     name upperneck
     direction 0.0498479 0.98191 -0.182667   
     length 1.68731   
     axis 0 0 0   XYZ
    dof rx ry rz
    limits (-20.0 45.0)
           (-30.0 30.0)
           (-30.0 30.0)
  end
  begin
     id 16
     name head
     direction 0.0230358 0.996257 -0.0833175  
     length 1.69785  
     axis 0 0 0   XYZ
    dof rx ry rz
    limits (-20.0 45.0)
           (-30.0 30.0)
           (-30.0 30.0)
  end
  begin
     id 17 
     name lclavicle
     direction 0.967963 0.201165 -0.150269  
     length 3.63976  
     axis 0 0 0   XYZ
    dof ry rz
    limits (-20.0 10.0)
           (0.0 20.0)
  end
  begin
     id 18 
     name lhumerus
     direction 1 -4.48954e-011 -2.92837e-028   
     length 5.32462   
     axis 180 -30 -90   XYZ
    dof rx ry rz
    limits (-60.0 90.0)
           (-90.0 90.0)
           (-90.0 90.0)
  end
  begin
     id 19
     name lradius
     direction 1 -4.48958e-011 -6.39511e-027   
     length 3.48402   
     axis 180 -30 -90   XYZ
    dof rx
    limits (-10.0 170.0)
  end
  begin
     id 20
     name lwrist
     direction 1 -4.48975e-011 -1.1413e-026   
     length 1.74201   
     axis 6.88575e-015 90 90   XYZ
    dof ry
    limits (-180.0 0.0)
 end
  begin
     id 21 
     name lhand
     direction 1 -4.48899e-011 -2.28192e-026   
     length 0.572476   
     axis 1.45643e-014 90 90   XYZ
    dof rx rz
    limits (-90.0 90.0)
           (-45.0 45.0)
  end
  begin
     id 22 
     name lfingers
     direction 1 -4.49155e-011 -4.5684e-026   
     length 0.461545   
     axis 2.91283e-014 90 90   XYZ
    dof rx
    limits (0.0 90.0)
  end
  begin
     id 23
     name lthumb
     direction 0.707107 -6.34943e-011 0.707107   
     length 0.662688   
     axis -90 45 -2.25915e-014   XYZ
    dof rx rz
    limits (-45.0 45.0)
           (-45.0 45.0)
  end
  begin
     id 24 
     name rclavicle
     direction -0.964103 0.264019 -0.0282629   
     length 3.54491  
     axis 0 0 0   XYZ 
    dof ry rz
    limits (-10.0 20.0)
           (-20.0 0.0)
  end
  begin
     id 25 
     name rhumerus
     direction -1 -4.48964e-011 -2.45032e-027  
     length 5.33589   
     axis 180 30 90   XYZ
    dof rx ry rz
    limits (-90.0 60.0)
           (-90.0 90.0)
           (-90.0 90.0)
  end
  begin
     id 26 
     name rradius
     direction -1 -4.48987e-011 -1.55093e-027   
     length 3.64134   
     axis 180 30 90   XYZ
    dof rx
    limits (-10.0 170.0)
  end
  begin
     id 27 
     name rwrist
     direction -1 -4.4897e-011 -1.14128e-026   
     length 1.82067   
     axis 6.88575e-015 -90 -90   XYZ
    dof ry
    limits (-180.0 0.0)
  end
  begin
     id 28
     name rhand
     direction -1 -4.49021e-011 -2.28301e-026   
     length 0.734811   
     axis 1.45643e-014 -90 -90   XYZ
    dof rx rz
    limits (-90.0 90.0)
           (-45.0 45.0)
  end
  begin
     id 29
     name rfingers
     direction -1 -4.48862e-011 -4.56319e-026   
     length 0.592424   
     axis 2.91283e-014 -90 -90   XYZ
    dof rx
    limits (0.0 90.0)
  end
  begin
     id 30
     name rthumb
     direction -0.707107 -6.34978e-011 0.707107   
     length 0.850605   
     axis -90 -45 2.25915e-014   XYZ
    dof rx rz
    limits (-45.0 45.0)
           (-45.0 45.0)
  end
:hierarchy
  begin
    root lhipjoint rhipjoint lowerback
    lhipjoint lfemur
    lfemur ltibia
    ltibia lfoot
    lfoot ltoes
    rhipjoint rfemur
    rfemur rtibia
    rtibia rfoot
    rfoot rtoes
    lowerback upperback
    upperback thorax
    thorax lowerneck lclavicle rclavicle
    lowerneck upperneck
    upperneck head
    lclavicle lhumerus
    lhumerus lradius
    lradius lwrist
    lwrist lhand lthumb
    lhand lfingers
    rclavicle rhumerus
    rhumerus rradius
    rradius rwrist
    rwrist rhand rthumb
    rhand rfingers
  end

#!OML:ASF F:\VICON\USERDATA\INSTALL\rory3\rory3.ASF
:FULLY-SPECIFIED
:DEGREES
146
root -0.648396 16.4795 -1.37683 2.35702 1.46699 0.0934709
lowerback 9.6981 -0.373413 -2.3689
upperback 0.0715298 -0.677014 1.5623
thorax -5.32441 -0.251825 3.06523
lowerneck -24.3067 -1.63607 -9.69584
upperneck 17.9264 -0.53843 7.34662
head 9.71663 -0.0473778 4.11401
rclavicle 3.47873e-016 -7.15625e-015
rhumerus -36.2749 -24.8648 -66.9544
rradius 40.8842
rwrist -32.1462
rhand -20.7786 -18.1129
rfingers 7.12502
rthumb 5.58809 -48.0192
lclavicle 3.47873e-016 -7.15625e-015
lhumerus -33.735 30.4091 71.0718
lradius 31.857
lwrist 46.369
lhand -14.0332 40.9513
lfingers 7.12502
lthumb 12.097 70.5816
rfemur -27.2694 -1.77264 23.2586
rtibia 65.806
rfoot -23.1731 3.39243
rtoes -2.70375
lfemur -24.549 10.6258 -22.3412
ltibia 61.3625
lfoot -24.2007 -6.0862
ltoes -14.6443
147
root -0.654125 16.3834 -1.40554 2.38583 1.45549 0.00616453
lowerback 9.85377 -0.363078 -2.40555
upperback 0.273077 -0.67166 1.53103
thorax -5.20056 -0.253287 3.05242
lowerneck -24.6159 -1.73801 -9.54892
upperneck 17.4719 -0.685435 7.34391
head 9.62326 -0.094318 4.05819
rclavicle -1.58531e-014 1.07344e-014
rhumerus -35.7487 -24.7531 -68.5509
rradius 40.1607
rwrist -31.9962
rhand -20.6638 -18.6387
rfingers 7.12502
rthumb 5.69898 -48.5421
lclavicle -1.58531e-014 1.07344e-014
lhumerus -32.9351 30.3589 72.6632
lradius 31.3758
lwrist 46.3527
lhand -14.143 40.9559
lfingers 7.12502
lthumb 11.9912 70.5924
rfemur -28.2285 -2.23907 23.5014
rtibia 67.3143
rfoot -23.6064 3.49745
rtoes -2.34739
lfemur -25.3591 11.0612 -22.2316
ltibia 62.7057
lfoot -24.8403 -6.57977
ltoes -13.6046
148
root -0.658887 16.3025 -1.42765 2.23342 1.52979 -0.0442524
lowerback 10.0574 -0.366291 -2.50864
upperback 0.519331 -0.69146 1.52345
thorax -5.05386 -0.26636 3.10595
lowerneck -24.8855 -1.81922 -9.47533
upperneck 17.1431 -0.791923 7.36838
head 9.56365 -0.127164 4.03341
rclavicle 8.19987e-015 -2.38542e-015
rhumerus -35.2558 -24.5287 -69.8974
rradius 39.5035
rwrist -31.9299
rhand -21.0096 -19.5314
rfingers 7.12502
rthumb 5.36505 -49.4435
lclavicle 8.19987e-015 -2.38542e-015
lhumerus -32.0713 30.171 74.0625
lradius 30.7652
lwrist 46.3161
lhand -14.0568 41.1399
lfingers 7.12502
lthumb 12.0743 70.7716
rfemur -28.8195 -2.81834 23.6491
rtibia 68.5648
rfoot -23.9862 3.82265
rtoes -2.22003
lfemur -25.7683 11.3586 -22.1001
ltibia 63.7528
lfoot -25.4755 -6.84488
ltoes -14.1816
149
root -0.660305 16.2383 -1.44705 2.01191 1.63161 -0.136705
lowerback 10.2205 -0.39354 -2.54235
upperback 0.844798 -0.732383 1.55396
thorax -4.80009 -0.294294 3.1614
lowerneck -25.0748 -1.87923 -9.57677
upperneck 16.5545 -0.837905 7.54079
head 9.39451 -0.124105 4.09215
rclavicle 9.44227e-015 3.77691e-015
rhumerus -34.646 -24.157 -71.0763
rradius 38.9662
rwrist -31.8355
rhand -21.4377 -20.429
rfingers 7.12502
rthumb 4.95171 -50.3511
lclavicle 9.44227e-015 3.77691e-015
lhumerus -31.0292 29.915 75.3236
lradius 30.1309
lwrist 46.3138
lhand -14.2475 41.5842
lfingers 7.12502
lthumb 11.8904 71.2266
rfemur -29.152 -3.43121 23.759
rtibia 69.4921
rfoot -24.1025 4.27719
rtoes -2.11661
lfemur -25.9302 11.5845 -21.8975
ltibia 64.489
lfoot -26.1378 -7.01281
ltoes -14.8742
150
root -0.660989 16.1872 -1.46123 1.80412 1.61394 -0.203968
lowerback 10.2993 -0.393156 -2.56259
upperback 1.13131 -0.735336 1.54824
thorax -4.54358 -0.303845 3.16491
lowerneck -25.3905 -1.91251 -9.56794
upperneck 16.2846 -0.852299 7.56793
head 9.35488 -0.118598 4.09493
rclavicle 1.78906e-015 -4.17448e-015
rhumerus -34.0035 -23.7219 -72.0273
rradius 38.412
rwrist -31.7809
rhand -22.0962 -21.2443
rfingers 7.12502
rthumb 4.31584 -51.1804
lclavicle 1.78906e-015 -4.17448e-015
lhumerus -30.1681 29.3348 76.2766
lradius 29.8231
lwrist 46.5015
lhand -14.9219 42.6195
lfingers 7.12502
lthumb 11.2401 72.2984
rfemur -29.2079 -3.88913 23.7798
rtibia 70.0415
rfoot -24.204 5.13264
rtoes -1.00666
lfemur -25.9655 11.9175 -21.726
ltibia 64.9449
lfoot -26.6791 -7.30103
ltoes -14.8916
151
root -0.661718 16.154 -1.47002 1.68289 1.50841 -0.223243
lowerback 10.3013 -0.380174 -2.62677
upperback 1.30119 -0.725846 1.52936
thorax -4.36708 -0.303698 3.178
lowerneck -25.6301 -1.89495 -9.52795
upperneck 16.1806 -0.805483 7.52222
head 9.35396 -0.094551 4.07891
rclavicle -1.82385e-014 1.11319e-014
rhumerus -33.435 -23.5543 -72.5362
rradius 37.8266
rwrist -31.656
rhand -22.6156 -22.0957
rfingers 7.12502
rthumb 3.81435 -52.0414
lclavicle -1.82385e-014 1.11319e-014
lhumerus -29.6347 28.7428 76.85
lradius 29.915
lwrist 46.5804
lhand -15.5801 43.8554
lfingers 7.12502
lthumb 10.6052 73.5678
rfemur -29.1366 -4.22886 23.7083
rtibia 70.2263
rfoot -24.301 6.29367
rtoes 0.561825
lfemur -25.9225 12.3057 -21.6371
ltibia 65.1417
lfoot -27.0347 -7.6672
ltoes -14.1659
152
root -0.664466 16.1455 -1.4744 1.67671 1.45746 -0.284322
lowerback 10.2425 -0.363237 -2.70069
upperback 1.33074 -0.708338 1.57077
thorax -4.30327 -0.295146 3.25948
lowerneck -25.6462 -1.87906 -9.55185
upperneck 16.0937 -0.758497 7.46937
head 9.32143 -0.0791037 4.06872
rclavicle 6.75868e-015 2.98177e-015
rhumerus -33.151 -23.6342 -72.4974
rradius 37.4319
rwrist -31.6
rhand -22.8032 -22.6056
rfingers 7.12502
rthumb 3.63316 -52.5543
lclavicle 6.75868e-015 2.98177e-015
lhumerus -29.3835 28.237 77.0535
lradius 30.158
lwrist 46.4911
lhand -15.5457 43.9726
lfingers 7.12502
lthumb 10.6384 73.6833
rfemur -29.0483 -4.55184 23.6817
rtibia 70.0682
rfoot -24.1777 7.18675
rtoes 1.96393
lfemur -25.8318 12.5965 -21.5347
ltibia 65.0885
lfoot -27.3234 -7.87902
ltoes -13.6562
153
root -0.66782 16.1592 -1.47472 1.73957 1.5844 -0.461266
lowerback 10.1379 -0.40759 -2.63721
upperback 1.25766 -0.754459 1.64926
thorax -4.31776 -0.317189 3.31107
lowerneck -25.5004 -1.87671 -9.55038
upperneck 16.0854 -0.756264 7.40888
head 9.29341 -0.0872234 4.04519
rclavicle 3.47873e-015 -3.97569e-016
rhumerus -33.1494 -23.9993 -72.0372
rradius 37.2557
rwrist -31.4355
rhand -22.6395 -22.7396
rfingers 7.12502
rthumb 3.79126 -52.6856
lclavicle 3.47873e-015 -3.97569e-016
lhumerus -29.3415 27.9641 76.7896
lradius 30.4556
lwrist 46.2057
lhand -14.6101 42.8246
lfingers 7.12502
lthumb 11.5407 72.4869
rfemur -28.8862 -5.07604 23.8106
rtibia 69.5961
rfoot -23.8856 7.731
rtoes 2.88148
lfemur -25.7142 12.6656 -21.3441
ltibia 64.7804
lfoot -27.4477 -7.91449
ltoes -13.737
154
root -0.666611 16.1869 -1.47309 1.85994 1.74007 -0.575991
lowerback 9.94078 -0.475199 -2.62584
upperback 1.15719 -0.835028 1.73789
thorax -4.30561 -0.355498 3.40589
lowerneck -25.5044 -1.82112 -9.41408
upperneck 16.3266 -0.67352 7.12288
head 9.36913 -0.0769904 3.93842
rclavicle -1.78409e-014 5.56597e-015
rhumerus -33.2531 -24.6063 -71.2165
rradius 37.3748
rwrist -31.0612
rhand -22.2383 -23.2399
rfingers 7.12502
rthumb 4.17862 -53.1786
lclavicle -1.78409e-014 5.56597e-015
lhumerus -29.3751 27.9757 76.2353
lradius 30.9445
lwrist 45.8238
lhand -13.8887 42.0432
lfingers 7.12502
lthumb 12.2364 71.6652
rfemur -28.6063 -5.67149 23.8733
rtibia 68.8458
rfoot -23.4654 8.37202
rtoes 4.7983
lfemur -25.5856 12.6395 -21.291
ltibia 64.2178
lfoot -27.2846 -7.87359
ltoes -13.3061
